<?xml version="1.0" encoding="utf-8"?>
<!-- Generator: Adobe Illustrator 26.1.0, SVG Export Plug-In . SVG Version: 6.00 Build 0)  -->
<svg version="1.1" id="Layer_1" xmlns="http://www.w3.org/2000/svg" xmlns:xlink="http://www.w3.org/1999/xlink" x="0px" y="0px"
	 viewBox="0 0 512 512" style="enable-background:new 0 0 512 512;" xml:space="preserve">
<style type="text/css">
	.st0{fill-rule:evenodd;clip-rule:evenodd;fill:#95C68C;}
	
		.st1{clip-path:url(#SVGID_00000072964500588461249990000009423351962899413662_);fill-rule:evenodd;clip-rule:evenodd;fill:#FFFFFF;}
	
		.st2{clip-path:url(#SVGID_00000072964500588461249990000009423351962899413662_);fill-rule:evenodd;clip-rule:evenodd;fill:#442E1F;}
	
		.st3{clip-path:url(#SVGID_00000072964500588461249990000009423351962899413662_);fill-rule:evenodd;clip-rule:evenodd;fill:#60C4BD;}
	.st4{clip-path:url(#SVGID_00000072964500588461249990000009423351962899413662_);fill:#60C4BD;}
	
		.st5{clip-path:url(#SVGID_00000072964500588461249990000009423351962899413662_);fill:none;stroke:#004F2A;stroke-width:1.1875;stroke-linejoin:round;stroke-miterlimit:10;}
	.st6{clip-path:url(#SVGID_00000072964500588461249990000009423351962899413662_);fill:#B01117;}
	.st7{fill-rule:evenodd;clip-rule:evenodd;fill:#004F2A;}
	.st8{fill-rule:evenodd;clip-rule:evenodd;fill:#992E19;}
	.st9{fill-rule:evenodd;clip-rule:evenodd;fill:#361C04;}
	.st10{fill-rule:evenodd;clip-rule:evenodd;fill:#FFFFFF;}
	
		.st11{clip-path:url(#SVGID_00000001623642763831805410000005380314371351451045_);fill-rule:evenodd;clip-rule:evenodd;fill:#863811;}
	
		.st12{clip-path:url(#SVGID_00000001623642763831805410000005380314371351451045_);fill-rule:evenodd;clip-rule:evenodd;fill:#361C04;}
	.st13{fill-rule:evenodd;clip-rule:evenodd;fill:#2C1908;}
	.st14{fill-rule:evenodd;clip-rule:evenodd;fill:#5C4035;}
	.st15{fill:none;stroke:#442E1F;stroke-width:1.7813;stroke-linecap:round;stroke-linejoin:round;stroke-miterlimit:10;}
	.st16{fill-rule:evenodd;clip-rule:evenodd;fill:#B01117;}
	.st17{fill:none;stroke:#000000;stroke-width:2.8501;stroke-linecap:round;stroke-linejoin:round;stroke-miterlimit:10;}
	.st18{fill-rule:evenodd;clip-rule:evenodd;}
	.st19{fill:none;stroke:#000000;stroke-width:1.7813;stroke-linecap:round;stroke-linejoin:round;stroke-miterlimit:10;}
	.st20{fill-rule:evenodd;clip-rule:evenodd;fill:#442E1F;}
	.st21{fill-rule:evenodd;clip-rule:evenodd;fill:#863811;}
</style>
<g>
	<circle class="st0" cx="254.1" cy="257.3" r="241.4"/>
	<g>
		<defs>
			<circle id="SVGID_1_" cx="254.1" cy="257.3" r="241.4"/>
		</defs>
		<clipPath id="SVGID_00000020376502105801056860000011113408138070238393_">
			<use xlink:href="#SVGID_1_"  style="overflow:visible;"/>
		</clipPath>
		
			<path style="clip-path:url(#SVGID_00000020376502105801056860000011113408138070238393_);fill-rule:evenodd;clip-rule:evenodd;fill:#FFFFFF;" d="
			M252,506.2c28.8,0.9,75.9-3.8,93.3-16.4c29.1-21.2,6.5-42.1-8.2-43.5c-34.5-3.1-50.5-17.4-54.1-32.6c-6.8-29,0-51,0-51h-31
			 M252,506.2c-28.8,0.9-75.9-3.8-93.3-16.4c-29.1-21.2-6.5-42.1,8.2-43.5c34.5-3.1,50.5-17.4,54.1-32.6c6.8-29,0-51,0-51h31"/>
		
			<path style="clip-path:url(#SVGID_00000020376502105801056860000011113408138070238393_);fill-rule:evenodd;clip-rule:evenodd;fill:#442E1F;" d="
			M252,364.7l-27,1c0.8,3.2,1.8,8.2,2.3,14.6c0.2,2.5,0.3,5.1,0.2,8c-0.2,7.6-1.5,16.5-4.2,26.1c-2.3,8-7.8,15.6-17.5,21.6
			c-4.2,2.6-9.1,5-14.9,7c-6.8,2.3-14.7,4.3-24,5.4c-7.7,1-17.6,7.9-19.3,17.1c-1.2,6.5,2.2,14,13.2,21.4c3.3,2.3,7.7,4.2,12.8,5.9
			c6.4,2.1,13.8,3.9,21.7,5.3c18.9,3.3,40.5,4.5,56.4,3.9h0l0,0l0.1,0l0.1,0l0,0h0c15.9,0.6,37.5-0.6,56.4-3.9
			c7.9-1.4,15.4-3.1,21.7-5.3c5.1-1.7,9.6-3.6,12.8-5.9c11-7.5,14.3-14.9,13.1-21.4c-1.7-9.3-11.6-16.2-19.3-17.1
			c-9.3-1.1-17.2-3-24-5.4c-5.8-2-10.7-4.3-14.9-7c-9.6-6-15.2-13.5-17.5-21.6c-2.7-9.6-4-18.4-4.2-26.1c-0.1-2.8,0-5.5,0.2-8
			c0.5-6.4,1.5-11.4,2.3-14.6L252,364.7z M252,360.9l-31-1.2l-2.9,4c0,0,1.6,6.6,2.1,17.1c0.1,2.3,0.2,4.8,0.2,7.5
			c0.1,7.2-0.1,15.7-1.8,25c-1.4,7.4-5.7,14.7-14.1,20.5c-3.9,2.7-8.6,5-14.2,6.8c-6.6,2.1-14.4,3.4-23.5,4
			c-9.4,0.5-21.8,8.5-24.5,19.6c-2,8.2,0.9,18.4,14.3,28.8c3.7,2.8,8.7,5.3,14.6,7.5c6.7,2.4,14.5,4.3,22.9,5.9
			c19.4,3.6,41.6,4.9,58,4.4c16.4,0.5,38.6-0.8,58-4.4c8.4-1.5,16.2-3.5,22.9-5.9c5.9-2.1,10.9-4.6,14.6-7.5
			c13.4-10.4,16.3-20.5,14.3-28.8c-2.8-11.1-15.2-19-24.5-19.6c-9.1-0.6-16.9-1.9-23.5-4c-5.6-1.8-10.4-4.1-14.3-6.8
			c-8.4-5.8-12.7-13.1-14.1-20.5c-1.7-9.3-1.9-17.7-1.8-25c0-2.7,0.1-5.2,0.2-7.5c0.5-10.5,2.1-17.1,2.1-17.1l-2.9-4L252,360.9z"/>
		
			<path style="clip-path:url(#SVGID_00000020376502105801056860000011113408138070238393_);fill-rule:evenodd;clip-rule:evenodd;fill:#60C4BD;" d="
			M283,413.8c3.6,15.2,19.6,29.5,54.1,32.6c14.7,1.3,37.3,22.3,8.2,43.5c-17.4,12.7-64.5,17.4-93.3,16.5v-0.1
			c-28.8,0.9-75.9-3.8-93.3-16.4c-29.1-21.2-6.5-42.1,8.2-43.5c34.5-3.1,50.5-17.4,54.1-32.6H283z"/>
		
			<path style="clip-path:url(#SVGID_00000020376502105801056860000011113408138070238393_);fill-rule:evenodd;clip-rule:evenodd;fill:#442E1F;" d="
			M252.1,506.3l-0.1,5v0l-0.1-5.1c-28.8,0.9-75.9-3.8-93.2-16.4c-29.1-21.2-6.5-42.1,8.2-43.5c34.5-3.1,50.5-17.4,54.1-32.6H283
			c3.6,15.2,19.6,29.5,54.1,32.6c14.7,1.3,37.3,22.3,8.2,43.5C327.9,502.5,280.9,507.3,252.1,506.3z M251.9,511.4l0.1,0.1
			c16.4,1.2,38.8,0.9,58.6-2.1c16.5-2.5,31-7.1,39.5-13c16.1-11.5,19.1-23.7,17.1-33.4c-2.9-13.8-17.8-23.9-29.3-25
			c-12.3-1.2-22-3.8-29.4-7.5c-9.8-4.9-15.3-11.5-17-18.6L283,410l-62.1-2.8l-6.4,5.1c-1.3,4.7-4.3,9.1-8.9,13.1
			c-2.6,2.3-5.8,4.4-9.5,6.4c-7.6,4-17.2,7.5-29.8,9.3c-10.1,1.5-23,10.7-25,23c-1.4,8.3,1.8,18.4,15.9,27.8
			c7.8,5.8,21.5,10.1,36.9,13.2C213.5,508.9,235.5,511.2,251.9,511.4z"/>
		<path style="clip-path:url(#SVGID_00000020376502105801056860000011113408138070238393_);fill:#60C4BD;" d="M67.9,261.2l-23.2-7.4
			l0.2,15.2L67.9,261.2z M75.9,252.6c0,3.4-0.5,6.1-1.6,8c-1.6,2.6-4.7,4.7-9.1,6.3c-16.3,5.8-26.4,9.5-30.4,11.1
			c-4.1,1.6-6.4,3.6-6.8,5.8l-0.3,1.9l-1.7,0l-0.2-17.2l1.8,0l0.8,3.2c0.4,1.3,1.1,2,2.2,2c0.7,0,1.6-0.2,2.7-0.6l9.2-3.2L42.1,253
			c-7.5-2.3-11.5-3.4-12-3.5c-1.2,0-2,1-2.5,3l-0.4,2.5l-1.7,0l-0.2-15.7l1.8,0l0.5,2.3c0.4,2.1,2.8,3.8,7.3,5.3l26.3,8.7
			c4.8,1.6,7.7,2.4,8.7,2.5c1,0.1,1.5-0.2,1.4-1c0-0.9-0.2-1.7-0.5-2.5c-0.3-0.8-0.5-1.3-0.5-1.5c0-1.3,0.6-2.2,1.8-2.7
			c0.4-0.1,0.8-0.2,1.3-0.2C74.9,250.1,75.7,251,75.9,252.6z"/>
		
			<path style="clip-path:url(#SVGID_00000020376502105801056860000011113408138070238393_);fill:none;stroke:#004F2A;stroke-width:1.1875;stroke-linejoin:round;stroke-miterlimit:10;" d="
			M67.9,261.2l-23.2-7.4l0.2,15.2L67.9,261.2z M75.9,252.6c0,3.4-0.5,6.1-1.6,8c-1.6,2.6-4.7,4.7-9.1,6.3
			c-16.3,5.8-26.4,9.5-30.4,11.1c-4.1,1.6-6.4,3.6-6.8,5.8l-0.3,1.9l-1.7,0l-0.2-17.2l1.8,0l0.8,3.2c0.4,1.3,1.1,2,2.2,2
			c0.7,0,1.6-0.2,2.7-0.6l9.2-3.2L42.1,253c-7.5-2.3-11.5-3.4-12-3.5c-1.2,0-2,1-2.5,3l-0.4,2.5l-1.7,0l-0.2-15.7l1.8,0l0.5,2.3
			c0.4,2.1,2.8,3.8,7.3,5.3l26.3,8.7c4.8,1.6,7.7,2.4,8.7,2.5c1,0.1,1.5-0.2,1.4-1c0-0.9-0.2-1.7-0.5-2.5c-0.3-0.8-0.5-1.3-0.5-1.5
			c0-1.3,0.6-2.2,1.8-2.7c0.4-0.1,0.8-0.2,1.3-0.2C74.9,250.1,75.7,251,75.9,252.6z"/>
		<path style="clip-path:url(#SVGID_00000020376502105801056860000011113408138070238393_);fill:#60C4BD;" d="M87,295.2l-47.1,9.5
			c-2.5,0.5-4,0.9-4.5,1.2c-1,0.5-1.7,1.5-2,2.9c-0.1,0.8-0.2,1.7-0.2,2.9l-1.5,0.3l-3.1-15.4l1.5-0.3c0.1,0.2,0.3,0.7,0.7,1.7
			c0.9,2.2,2.8,3,5.6,2.4l41.3-8.3c1.7-0.3,2.7-0.7,3-1c0.8-0.6,0.9-2.2,0.4-4.7l1.3-0.5L87,295.2z"/>
		
			<path style="clip-path:url(#SVGID_00000020376502105801056860000011113408138070238393_);fill:none;stroke:#004F2A;stroke-width:1.1875;stroke-linejoin:round;stroke-miterlimit:10;" d="
			M87,295.2l-47.1,9.5c-2.5,0.5-4,0.9-4.5,1.2c-1,0.5-1.7,1.5-2,2.9c-0.1,0.8-0.2,1.7-0.2,2.9l-1.5,0.3l-3.1-15.4l1.5-0.3
			c0.1,0.2,0.3,0.7,0.7,1.7c0.9,2.2,2.8,3,5.6,2.4l41.3-8.3c1.7-0.3,2.7-0.7,3-1c0.8-0.6,0.9-2.2,0.4-4.7l1.3-0.5L87,295.2z"/>
		<path style="clip-path:url(#SVGID_00000020376502105801056860000011113408138070238393_);fill:#60C4BD;" d="M84.4,313.1
			c0.9-0.3,1.8-0.3,2.7,0.1c0.9,0.4,1.5,1,1.8,2c0.3,0.9,0.3,1.8-0.2,2.6c-0.4,0.9-1.1,1.5-2,1.8c-0.9,0.3-1.8,0.3-2.6-0.2
			c-0.8-0.4-1.4-1.1-1.7-2c-0.3-0.9-0.3-1.8,0.1-2.6C82.8,314,83.5,313.5,84.4,313.1z M71.4,325.3l-24,8.4c-2.4,0.9-3.9,1.6-4.5,2.2
			c-0.6,0.6-0.8,1.6-0.6,2.9l0.4,2.5l-1.6,0.6l-5.2-14.9l1.7-0.6l1.5,2.5c0.6,0.9,1.1,1.4,1.5,1.5c0.5,0.1,1.5-0.2,3-0.7l17.7-6.2
			c1.8-0.6,2.9-1.1,3.2-1.4c0.8-0.7,0.7-2.3-0.2-4.9l1.3-0.7L71.4,325.3z"/>
		
			<path style="clip-path:url(#SVGID_00000020376502105801056860000011113408138070238393_);fill:none;stroke:#004F2A;stroke-width:1.1875;stroke-linejoin:round;stroke-miterlimit:10;" d="
			M84.4,313.1c0.9-0.3,1.8-0.3,2.7,0.1c0.9,0.4,1.5,1,1.8,2c0.3,0.9,0.3,1.8-0.2,2.6c-0.4,0.9-1.1,1.5-2,1.8
			c-0.9,0.3-1.8,0.3-2.6-0.2c-0.8-0.4-1.4-1.1-1.7-2c-0.3-0.9-0.3-1.8,0.1-2.6C82.8,314,83.5,313.5,84.4,313.1z M71.4,325.3l-24,8.4
			c-2.4,0.9-3.9,1.6-4.5,2.2c-0.6,0.6-0.8,1.6-0.6,2.9l0.4,2.5l-1.6,0.6l-5.2-14.9l1.7-0.6l1.5,2.5c0.6,0.9,1.1,1.4,1.5,1.5
			c0.5,0.1,1.5-0.2,3-0.7l17.7-6.2c1.8-0.6,2.9-1.1,3.2-1.4c0.8-0.7,0.7-2.3-0.2-4.9l1.3-0.7L71.4,325.3z"/>
		<path style="clip-path:url(#SVGID_00000020376502105801056860000011113408138070238393_);fill:#60C4BD;" d="M88.1,361.7l-2,1.1
			l-33.8-3.4l6.7,12.4c1,1.9,2.8,2.4,5.5,1.6l1.7-0.7l1,1.9l-8.1,4.2l-13-23.9l2.4-1.3l34,4.3c-1.8-3.4-3.7-7-5.8-10.7
			c-1.1-1.9-2.9-2.7-5.6-2.4c-0.3,0-0.6,0-0.7,0l-0.9-1.7l6.5-3.5L88.1,361.7z"/>
		
			<path style="clip-path:url(#SVGID_00000020376502105801056860000011113408138070238393_);fill:none;stroke:#004F2A;stroke-width:1.1875;stroke-linejoin:round;stroke-miterlimit:10;" d="
			M88.1,361.7l-2,1.1l-33.8-3.4l6.7,12.4c1,1.9,2.8,2.4,5.5,1.6l1.7-0.7l1,1.9l-8.1,4.2l-13-23.9l2.4-1.3l34,4.3
			c-1.8-3.4-3.7-7-5.8-10.7c-1.1-1.9-2.9-2.7-5.6-2.4c-0.3,0-0.6,0-0.7,0l-0.9-1.7l6.5-3.5L88.1,361.7z"/>
		<path style="clip-path:url(#SVGID_00000020376502105801056860000011113408138070238393_);fill:#60C4BD;" d="M109.3,389.6l-1.8,1.4
			l-33.9,2.7l8.9,11c1.3,1.6,3.2,1.8,5.7,0.6l1.5-1l1.4,1.7l-7.2,5.6l-17.1-21.2l2.1-1.7l34.2-1.9c-2.4-3-4.9-6.2-7.6-9.5
			c-1.4-1.6-3.4-2.1-5.9-1.3c-0.3,0.1-0.6,0.1-0.7,0.2l-1.2-1.5l5.8-4.7L109.3,389.6z"/>
		
			<path style="clip-path:url(#SVGID_00000020376502105801056860000011113408138070238393_);fill:none;stroke:#004F2A;stroke-width:1.1875;stroke-linejoin:round;stroke-miterlimit:10;" d="
			M109.3,389.6l-1.8,1.4l-33.9,2.7l8.9,11c1.3,1.6,3.2,1.8,5.7,0.6l1.5-1l1.4,1.7l-7.2,5.6l-17.1-21.2l2.1-1.7l34.2-1.9
			c-2.4-3-4.9-6.2-7.6-9.5c-1.4-1.6-3.4-2.1-5.9-1.3c-0.3,0.1-0.6,0.1-0.7,0.2l-1.2-1.5l5.8-4.7L109.3,389.6z"/>
		<path style="clip-path:url(#SVGID_00000020376502105801056860000011113408138070238393_);fill:#60C4BD;" d="M117.7,424
			c-1.9-1.2-3.7-2.2-5.1-2.9c-1.5-0.7-2.8-1.1-3.9-1.2c-1.1-0.1-2.1,0-3,0.3c-0.9,0.3-1.7,0.9-2.4,1.7c-1.8,2.1-1.8,4,0.1,5.6
			c0.7,0.6,1.6,0.9,2.7,1c1.1,0.1,2.3,0.1,3.5-0.1c1.2-0.2,2.3-0.4,3.4-0.8c1.1-0.4,1.9-0.7,2.5-1L117.7,424z M120.1,439.5
			c-0.1,0.1-0.5,0.2-1.1,0.4c-0.6,0.2-1.3,0.3-2.1,0.4c-0.8,0.1-1.6,0.1-2.4,0c-0.8-0.1-1.5-0.4-2.1-0.9c-0.8-0.7-1.3-1.5-1.5-2.3
			c-0.2-0.8-0.2-1.6,0-2.5s0.5-1.6,0.9-2.4c0.4-0.8,0.8-1.4,1.2-2c-0.3,0-0.8,0.1-1.7,0.4c-0.9,0.3-2,0.4-3.2,0.5
			c-1.2,0.1-2.6,0-4-0.3c-1.4-0.3-2.8-1-4.1-2.1c-0.6-0.5-1.2-1.2-1.8-1.9c-0.5-0.8-0.9-1.6-1.1-2.5c-0.2-0.9-0.2-1.8,0.1-2.8
			c0.2-1,0.8-2.1,1.7-3.1c1.3-1.5,2.8-2.3,4.7-2.5c1.8-0.2,3.8,0.1,5.7,0.8c2,0.7,3.7,1.4,5.2,2.2c1.5,0.8,3.2,1.7,5.2,2.8l4.5-5.3
			c0.4-0.5,0.9-1.1,1.4-1.8c0.6-0.7,1-1.5,1.4-2.4c0.3-0.9,0.5-1.7,0.4-2.6c-0.1-0.9-0.6-1.7-1.6-2.5c-1.1-1-2.3-1.5-3.4-1.7
			c-1.1-0.2-2-0.2-2.6-0.1c-0.6,0.1-1.6,0.2-2.8,0.4c-0.8-0.5-1.4-1-1.7-1.5c-0.3-0.5-0.5-0.9-0.6-1.4c-0.1-0.5,0.1-0.9,0.4-1.3
			c0.5-0.6,1.5-0.8,2.9-0.6c1.4,0.2,3,0.8,4.9,1.6c1.9,0.8,3.5,1.8,4.8,2.9c1.2,1,2.1,2.1,2.6,3.1c0.5,1.1,0.8,2.1,0.8,3.2
			c0,1.1-0.2,2.1-0.6,3.1c-0.4,1-0.9,2-1.5,3c-0.6,1-1.3,2-2.1,2.9c-0.8,0.9-1.5,1.9-2.3,2.7c-1.4,1.6-2.7,3.2-4,4.7
			c-1.3,1.5-2.5,2.9-3.4,4.1c-1,1.3-1.6,2.4-2,3.3c-0.4,1-0.2,1.7,0.4,2.2c0.8,0.7,2.2,0.6,4.2-0.2L120.1,439.5z"/>
		
			<path style="clip-path:url(#SVGID_00000020376502105801056860000011113408138070238393_);fill:none;stroke:#004F2A;stroke-width:1.1875;stroke-linejoin:round;stroke-miterlimit:10;" d="
			M117.7,424c-1.9-1.2-3.7-2.2-5.1-2.9c-1.5-0.7-2.8-1.1-3.9-1.2c-1.1-0.1-2.1,0-3,0.3c-0.9,0.3-1.7,0.9-2.4,1.7
			c-1.8,2.1-1.8,4,0.1,5.6c0.7,0.6,1.6,0.9,2.7,1c1.1,0.1,2.3,0.1,3.5-0.1c1.2-0.2,2.3-0.4,3.4-0.8c1.1-0.4,1.9-0.7,2.5-1L117.7,424
			z M120.1,439.5c-0.1,0.1-0.5,0.2-1.1,0.4c-0.6,0.2-1.3,0.3-2.1,0.4c-0.8,0.1-1.6,0.1-2.4,0c-0.8-0.1-1.5-0.4-2.1-0.9
			c-0.8-0.7-1.3-1.5-1.5-2.3c-0.2-0.8-0.2-1.6,0-2.5s0.5-1.6,0.9-2.4c0.4-0.8,0.8-1.4,1.2-2c-0.3,0-0.8,0.1-1.7,0.4
			c-0.9,0.3-2,0.4-3.2,0.5c-1.2,0.1-2.6,0-4-0.3c-1.4-0.3-2.8-1-4.1-2.1c-0.6-0.5-1.2-1.2-1.8-1.9c-0.5-0.8-0.9-1.6-1.1-2.5
			c-0.2-0.9-0.2-1.8,0.1-2.8c0.2-1,0.8-2.1,1.7-3.1c1.3-1.5,2.8-2.3,4.7-2.5c1.8-0.2,3.8,0.1,5.7,0.8c2,0.7,3.7,1.4,5.2,2.2
			c1.5,0.8,3.2,1.7,5.2,2.8l4.5-5.3c0.4-0.5,0.9-1.1,1.4-1.8c0.6-0.7,1-1.5,1.4-2.4c0.3-0.9,0.5-1.7,0.4-2.6
			c-0.1-0.9-0.6-1.7-1.6-2.5c-1.1-1-2.3-1.5-3.4-1.7c-1.1-0.2-2-0.2-2.6-0.1c-0.6,0.1-1.6,0.2-2.8,0.4c-0.8-0.5-1.4-1-1.7-1.5
			c-0.3-0.5-0.5-0.9-0.6-1.4c-0.1-0.5,0.1-0.9,0.4-1.3c0.5-0.6,1.5-0.8,2.9-0.6c1.4,0.2,3,0.8,4.9,1.6c1.9,0.8,3.5,1.8,4.8,2.9
			c1.2,1,2.1,2.1,2.6,3.1c0.5,1.1,0.8,2.1,0.8,3.2c0,1.1-0.2,2.1-0.6,3.1c-0.4,1-0.9,2-1.5,3c-0.6,1-1.3,2-2.1,2.9
			c-0.8,0.9-1.5,1.9-2.3,2.7c-1.4,1.6-2.7,3.2-4,4.7c-1.3,1.5-2.5,2.9-3.4,4.1c-1,1.3-1.6,2.4-2,3.3c-0.4,1-0.2,1.7,0.4,2.2
			c0.8,0.7,2.2,0.6,4.2-0.2L120.1,439.5z"/>
		<path style="clip-path:url(#SVGID_00000020376502105801056860000011113408138070238393_);fill:#60C4BD;" d="M383.6,380.8
			c-1.8,2.1-3.4,2.6-4.9,1.3c-1.1-0.9-1.4-2.2-0.9-3.6c0.2-0.5,0.4-0.9,0.7-1.3c1-1.1,2.1-1.7,3.5-1.7c1.4,0,2.3,0,2.7-0.1
			c0.4-0.1,0.9-0.4,1.3-0.9l9.5-11.3l1.4,1.2l-1.3,2.6c-0.5,0.9-0.6,1.6-0.4,2c0.2,0.4,0.9,1.1,2.2,2.2l28.2,23.7
			c1.4,1.1,2.3,1.7,2.7,1.8c0.4,0,0.9-0.3,1.7-0.8l2.3-1.8l1.4,1.2L423,407.6l-1.3-1.1l1.2-2.2c0.7-1.3,0.9-2.4,0.4-3.3
			c-0.5-0.8-1.6-2-3.3-3.4l-25.5-21.4c-2.3-1.8-4-2.4-5.2-1.6c-0.4,0.2-0.8,0.6-1.2,1.1L383.6,380.8z"/>
		
			<path style="clip-path:url(#SVGID_00000020376502105801056860000011113408138070238393_);fill:none;stroke:#004F2A;stroke-width:1.1875;stroke-linejoin:round;stroke-miterlimit:10;" d="
			M383.6,380.8c-1.8,2.1-3.4,2.6-4.9,1.3c-1.1-0.9-1.4-2.2-0.9-3.6c0.2-0.5,0.4-0.9,0.7-1.3c1-1.1,2.1-1.7,3.5-1.7
			c1.4,0,2.3,0,2.7-0.1c0.4-0.1,0.9-0.4,1.3-0.9l9.5-11.3l1.4,1.2l-1.3,2.6c-0.5,0.9-0.6,1.6-0.4,2c0.2,0.4,0.9,1.1,2.2,2.2
			l28.2,23.7c1.4,1.1,2.3,1.7,2.7,1.8c0.4,0,0.9-0.3,1.7-0.8l2.3-1.8l1.4,1.2L423,407.6l-1.3-1.1l1.2-2.2c0.7-1.3,0.9-2.4,0.4-3.3
			c-0.5-0.8-1.6-2-3.3-3.4l-25.5-21.4c-2.3-1.8-4-2.4-5.2-1.6c-0.4,0.2-0.8,0.6-1.2,1.1L383.6,380.8z"/>
		<path style="clip-path:url(#SVGID_00000020376502105801056860000011113408138070238393_);fill:#60C4BD;" d="M429.9,370.5
			c5.1,2.8,9.4,3.6,12.9,2.4c2.3-0.8,4-2.3,5.3-4.6c1.3-2.3,1.6-4.5,1.1-6.6c-0.3-1-0.7-2.1-1.2-3.3l-18.8-10.3
			c-1.5-0.1-2.9,0.7-4.4,2.2c-0.7,0.7-1.3,1.5-1.8,2.5c-2,3.7-1.8,7.6,0.7,11.6C425.4,367.1,427.4,369.1,429.9,370.5z M429.1,376.3
			c-7-3.8-10.6-8.8-11-15.1c-0.2-3.4,0.6-6.6,2.2-9.6c1-1.8,2.4-3.4,4.1-4.9l0.8-0.7l-13.9-7.6c-1.7-0.9-2.8-1.4-3.2-1.5
			c-1-0.1-2.2,1-3.5,3.4l-1.3-0.5l2.6-10.3l46,25.1c1.7,0.9,3,0.5,3.9-1.2c0.1-0.1,0.3-0.7,0.7-1.6c0.4-1,0.6-1.5,0.6-1.5l1.5,0.8
			l-2.7,9.6l-4.4-0.7c0,0.1,0,0.2,0.1,0.5c0.8,4,0.4,7.4-1.1,10.1c-3.1,5.6-7.5,8.3-13.3,8C434.5,378.5,431.8,377.7,429.1,376.3z"/>
		
			<path style="clip-path:url(#SVGID_00000020376502105801056860000011113408138070238393_);fill:none;stroke:#004F2A;stroke-width:1.1875;stroke-linejoin:round;stroke-miterlimit:10;" d="
			M429.9,370.5c5.1,2.8,9.4,3.6,12.9,2.4c2.3-0.8,4-2.3,5.3-4.6c1.3-2.3,1.6-4.5,1.1-6.6c-0.3-1-0.7-2.1-1.2-3.3l-18.8-10.3
			c-1.5-0.1-2.9,0.7-4.4,2.2c-0.7,0.7-1.3,1.5-1.8,2.5c-2,3.7-1.8,7.6,0.7,11.6C425.4,367.1,427.4,369.1,429.9,370.5z M429.1,376.3
			c-7-3.8-10.6-8.8-11-15.1c-0.2-3.4,0.6-6.6,2.2-9.6c1-1.8,2.4-3.4,4.1-4.9l0.8-0.7l-13.9-7.6c-1.7-0.9-2.8-1.4-3.2-1.5
			c-1-0.1-2.2,1-3.5,3.4l-1.3-0.5l2.6-10.3l46,25.1c1.7,0.9,3,0.5,3.9-1.2c0.1-0.1,0.3-0.7,0.7-1.6c0.4-1,0.6-1.5,0.6-1.5l1.5,0.8
			l-2.7,9.6l-4.4-0.7c0,0.1,0,0.2,0.1,0.5c0.8,4,0.4,7.4-1.1,10.1c-3.1,5.6-7.5,8.3-13.3,8C434.5,378.5,431.8,377.7,429.1,376.3z"/>
		<path style="clip-path:url(#SVGID_00000020376502105801056860000011113408138070238393_);fill:#60C4BD;" d="M441.9,325.7l4.2-13.6
			c-2.1-0.6-3.8-0.7-5.1,0c-1.3,0.6-2.2,1.7-2.7,3.2c-0.7,2.3-0.6,4.4,0.3,6.3C439.5,323.5,440.6,324.8,441.9,325.7z M435.9,314.4
			c1.6-5.1,4.6-7.7,9-7.8c2,0,3.8,0.4,5.5,1.2l-5.9,19.1c1.8,0.9,3.5,1.7,5.2,2.2c5.6,1.7,10,1.2,13-1.5c1.6-1.4,2.8-3.4,3.6-5.9
			c0.8-2.6,0.7-5.5-0.4-8.7l1.6-0.8l1,1.5c2.2,4,2.7,8.1,1.5,12.2c-0.8,2.5-2.2,4.5-4.4,6.2c-4.3,3.3-9.5,4-15.6,2.1
			c-6.4-2-10.8-5.3-13-9.9C435.3,320.8,435,317.5,435.9,314.4z"/>
		
			<path style="clip-path:url(#SVGID_00000020376502105801056860000011113408138070238393_);fill:none;stroke:#004F2A;stroke-width:1.1875;stroke-linejoin:round;stroke-miterlimit:10;" d="
			M441.9,325.7l4.2-13.6c-2.1-0.6-3.8-0.7-5.1,0c-1.3,0.6-2.2,1.7-2.7,3.2c-0.7,2.3-0.6,4.4,0.3,6.3
			C439.5,323.5,440.6,324.8,441.9,325.7z M435.9,314.4c1.6-5.1,4.6-7.7,9-7.8c2,0,3.8,0.4,5.5,1.2l-5.9,19.1
			c1.8,0.9,3.5,1.7,5.2,2.2c5.6,1.7,10,1.2,13-1.5c1.6-1.4,2.8-3.4,3.6-5.9c0.8-2.6,0.7-5.5-0.4-8.7l1.6-0.8l1,1.5
			c2.2,4,2.7,8.1,1.5,12.2c-0.8,2.5-2.2,4.5-4.4,6.2c-4.3,3.3-9.5,4-15.6,2.1c-6.4-2-10.8-5.3-13-9.9
			C435.3,320.8,435,317.5,435.9,314.4z"/>
		<path style="clip-path:url(#SVGID_00000020376502105801056860000011113408138070238393_);fill:#60C4BD;" d="M463.6,278.9
			c0.1,2.3,0.3,4.2,0.5,5.9c0.2,1.6,0.6,3,1.2,3.9c0.5,1,1.2,1.8,1.9,2.3c0.7,0.6,1.7,0.9,2.8,1c2.8,0.3,4.3-0.8,4.5-3.2
			c0.1-0.9-0.1-1.8-0.7-2.8c-0.5-1-1.2-2-2-2.9c-0.8-0.9-1.7-1.7-2.6-2.4c-0.9-0.7-1.7-1.2-2.3-1.5L463.6,278.9z M475.1,268.2
			c0.1,0.1,0.4,0.3,0.9,0.7c0.5,0.4,1,0.9,1.5,1.5c0.5,0.6,1,1.3,1.4,2c0.4,0.7,0.5,1.5,0.5,2.2c-0.1,1.1-0.5,1.9-1,2.5
			c-0.6,0.6-1.2,1.1-2,1.4c-0.8,0.3-1.6,0.5-2.5,0.6c-0.9,0.1-1.6,0.1-2.3,0.1c0.1,0.2,0.6,0.6,1.3,1.2c0.7,0.6,1.5,1.4,2.2,2.4
			c0.8,1,1.4,2.1,2,3.5c0.6,1.4,0.7,2.9,0.6,4.6c-0.1,0.8-0.3,1.7-0.6,2.6c-0.3,0.9-0.8,1.6-1.4,2.3c-0.6,0.7-1.4,1.2-2.4,1.6
			c-1,0.4-2.2,0.5-3.5,0.3c-2-0.2-3.5-1-4.7-2.5c-1.2-1.4-2-3.2-2.6-5.2c-0.5-2-0.9-3.9-1.1-5.5c-0.2-1.7-0.4-3.6-0.6-5.9l-6.9-0.7
			c-0.6-0.1-1.4-0.1-2.3-0.2c-0.9-0.1-1.9,0-2.8,0.2c-0.9,0.2-1.7,0.6-2.4,1.2c-0.7,0.6-1.1,1.5-1.2,2.7c-0.2,1.5,0,2.8,0.5,3.8
			c0.5,1,0.9,1.8,1.4,2.3c0.4,0.5,1.1,1.2,1.9,2c0,1-0.1,1.7-0.3,2.2c-0.2,0.5-0.5,0.9-0.8,1.3c-0.4,0.3-0.8,0.4-1.4,0.4
			c-0.8-0.1-1.5-0.8-2.1-2.1c-0.6-1.3-1.1-2.9-1.4-5c-0.4-2-0.4-3.9-0.3-5.6c0.2-1.6,0.5-2.9,1.1-3.9c0.6-1,1.3-1.9,2.1-2.5
			c0.9-0.6,1.8-1,2.9-1.3c1.1-0.2,2.2-0.4,3.4-0.4c1.2,0,2.4,0,3.6,0.1c1.2,0.1,2.4,0.2,3.5,0.4c2.1,0.2,4.1,0.5,6.1,0.7
			c2,0.3,3.8,0.4,5.3,0.5c1.6,0.1,2.9,0,3.8-0.2c1-0.2,1.5-0.8,1.6-1.6c0.1-1-0.7-2.2-2.5-3.4L475.1,268.2z"/>
		
			<path style="clip-path:url(#SVGID_00000020376502105801056860000011113408138070238393_);fill:none;stroke:#004F2A;stroke-width:1.1875;stroke-linejoin:round;stroke-miterlimit:10;" d="
			M463.6,278.9c0.1,2.3,0.3,4.2,0.5,5.9c0.2,1.6,0.6,3,1.2,3.9c0.5,1,1.2,1.8,1.9,2.3c0.7,0.6,1.7,0.9,2.8,1
			c2.8,0.3,4.3-0.8,4.5-3.2c0.1-0.9-0.1-1.8-0.7-2.8c-0.5-1-1.2-2-2-2.9c-0.8-0.9-1.7-1.7-2.6-2.4c-0.9-0.7-1.7-1.2-2.3-1.5
			L463.6,278.9z M475.1,268.2c0.1,0.1,0.4,0.3,0.9,0.7c0.5,0.4,1,0.9,1.5,1.5c0.5,0.6,1,1.3,1.4,2c0.4,0.7,0.5,1.5,0.5,2.2
			c-0.1,1.1-0.5,1.9-1,2.5c-0.6,0.6-1.2,1.1-2,1.4c-0.8,0.3-1.6,0.5-2.5,0.6c-0.9,0.1-1.6,0.1-2.3,0.1c0.1,0.2,0.6,0.6,1.3,1.2
			c0.7,0.6,1.5,1.4,2.2,2.4c0.8,1,1.4,2.1,2,3.5c0.6,1.4,0.7,2.9,0.6,4.6c-0.1,0.8-0.3,1.7-0.6,2.6c-0.3,0.9-0.8,1.6-1.4,2.3
			c-0.6,0.7-1.4,1.2-2.4,1.6c-1,0.4-2.2,0.5-3.5,0.3c-2-0.2-3.5-1-4.7-2.5c-1.2-1.4-2-3.2-2.6-5.2c-0.5-2-0.9-3.9-1.1-5.5
			c-0.2-1.7-0.4-3.6-0.6-5.9l-6.9-0.7c-0.6-0.1-1.4-0.1-2.3-0.2c-0.9-0.1-1.9,0-2.8,0.2c-0.9,0.2-1.7,0.6-2.4,1.2
			c-0.7,0.6-1.1,1.5-1.2,2.7c-0.2,1.5,0,2.8,0.5,3.8c0.5,1,0.9,1.8,1.4,2.3c0.4,0.5,1.1,1.2,1.9,2c0,1-0.1,1.7-0.3,2.2
			c-0.2,0.5-0.5,0.9-0.8,1.3c-0.4,0.3-0.8,0.4-1.4,0.4c-0.8-0.1-1.5-0.8-2.1-2.1c-0.6-1.3-1.1-2.9-1.4-5c-0.4-2-0.4-3.9-0.3-5.6
			c0.2-1.6,0.5-2.9,1.1-3.9c0.6-1,1.3-1.9,2.1-2.5c0.9-0.6,1.8-1,2.9-1.3c1.1-0.2,2.2-0.4,3.4-0.4c1.2,0,2.4,0,3.6,0.1
			c1.2,0.1,2.4,0.2,3.5,0.4c2.1,0.2,4.1,0.5,6.1,0.7c2,0.3,3.8,0.4,5.3,0.5c1.6,0.1,2.9,0,3.8-0.2c1-0.2,1.5-0.8,1.6-1.6
			c0.1-1-0.7-2.2-2.5-3.4L475.1,268.2z"/>
		<path style="clip-path:url(#SVGID_00000020376502105801056860000011113408138070238393_);fill:#60C4BD;" d="M420.4,248l48-2.5
			c2.5-0.1,4-0.3,4.6-0.5c1.1-0.4,1.9-1.2,2.4-2.6c0.2-0.7,0.5-1.7,0.6-2.8l1.5-0.1l0.8,15.7l-1.5,0.1c-0.1-0.2-0.2-0.8-0.5-1.8
			c-0.6-2.3-2.3-3.3-5.2-3.2l-42.1,2.2c-1.7,0.1-2.7,0.3-3.2,0.5c-0.9,0.5-1.2,2-1.1,4.6l-1.3,0.3L420.4,248z"/>
		
			<path style="clip-path:url(#SVGID_00000020376502105801056860000011113408138070238393_);fill:none;stroke:#004F2A;stroke-width:1.1875;stroke-linejoin:round;stroke-miterlimit:10;" d="
			M420.4,248l48-2.5c2.5-0.1,4-0.3,4.6-0.5c1.1-0.4,1.9-1.2,2.4-2.6c0.2-0.7,0.5-1.7,0.6-2.8l1.5-0.1l0.8,15.7l-1.5,0.1
			c-0.1-0.2-0.2-0.8-0.5-1.8c-0.6-2.3-2.3-3.3-5.2-3.2l-42.1,2.2c-1.7,0.1-2.7,0.3-3.2,0.5c-0.9,0.5-1.2,2-1.1,4.6l-1.3,0.3
			L420.4,248z"/>
		<path style="clip-path:url(#SVGID_00000020376502105801056860000011113408138070238393_);fill:#B01117;" d="M391.8,402.2
			c-4.5,1.2-28.2-10.5-31.3-7.9c-2.1,1.8-2,5.8,0,10.4c-4.2-2.8-8.1-3.6-10.2-1.8c-3.1,2.6,4.4,27.9,2.4,32.2l-0.4,0.8l-0.1,0.2
			l0.2-0.1c6,2.2,17.6,6.5,25.8,9.6c5,1.9,10.3-0.6,11.9-5.6c5.2-0.7,8.6-5.5,7.6-10.7c-1.6-8.5-3.8-20.7-5-27l0.2-0.2L391.8,402.2z
			 M379.9,415.2c-0.7,1-1.3,2.1-1.8,3.3l-2.1,4.6l-4.9,1.2c-1.2,0.3-2.4,0.7-3.5,1.2c1-1.2,1.8-2.7,2.4-4.3l1.4-3.8l4-0.7
			C377,416.5,378.5,416,379.9,415.2C379.9,415.2,379.9,415.2,379.9,415.2z"/>
		
			<path style="clip-path:url(#SVGID_00000020376502105801056860000011113408138070238393_);fill-rule:evenodd;clip-rule:evenodd;fill:#442E1F;" d="
			M391.2,400.5L391.2,400.5L391.2,400.5L391.2,400.5z M391.1,400.6c-0.3,0.4-0.5,1-0.4,1.6c0.1,0.9,0.7,1.6,1.5,1.8
			c-0.1,0-0.3,0.1-0.5,0.1c0.2,0.1,0.4,0.2,0.6,0.2l-0.1-0.2l0,0l-0.1,0l0.1,0l0,0.1l0.2,0l0.1,0L391.1,400.6z M392.7,404.3
			L392.7,404.3c0,0.1-0.1,0.1-0.2,0L392.7,404.3z M376.7,418.2l-1.4,4.1c-0.3,0.1-0.6,0.2-1,0.2c-1.5,0.3-3.5,0.5-3.5,0.5l-0.1,0
			c0.2-0.5,0.4-1,0.5-1.5l1-3.1l3.4-0.2C375.9,418.3,376.3,418.3,376.7,418.2z M378.5,413.5l1.4,3.9l0.9-0.3l-0.1,0.1l0.3-0.1
			l-0.3,0.1l-1.3,1.8l-2.5,4.4c-0.1,0.2-0.3,0.4-0.6,0.5c0,0-0.7,0.1-1.5,0.4c-1.4,0.5-3.4,1.2-3.4,1.2l-3.2,1.4
			c-0.7,0.3-1.4,0.1-1.8-0.5c-0.4-0.6-0.4-1.3,0-1.9c0.5-0.5,0.9-1.1,1.3-1.8c0.4-0.6,0.8-1.3,1.1-2l1.4-3.8
			c0.1-0.4,0.5-0.7,0.9-0.8l3.9-1.1c0.7-0.2,1.4-0.5,2-0.9C377.5,414.1,378,413.9,378.5,413.5L378.5,413.5L378.5,413.5L378.5,413.5
			L378.5,413.5L378.5,413.5L378.5,413.5L378.5,413.5c-0.6,0.6-0.9,1.3-0.8,2c0.2-0.5,0.4-0.9,0.7-1.4L378.5,413.5L378.5,413.5
			L378.5,413.5c0.1-0.1,0.2-0.2,0.4-0.3L378.5,413.5z M352.5,437.3L352.5,437.3L352.5,437.3L352.5,437.3L352.5,437.3z M352.5,437.4
			L352.5,437.4L352.5,437.4L352.5,437.4z M390.9,404.1l5.4,25.3c0.5,2.2,0,4.4-1.1,6c-1.1,1.7-3,2.9-5.2,3.3c-0.5,0.1-0.8,0.4-1,0.8
			c-0.7,2.2-2.2,3.8-4.1,4.7c-1.9,0.9-4.1,1-6.3,0.1l-24.3-9.4c0.2-0.8,0.3-1.9,0.2-3.3c-0.3-5.7-3.1-16.5-3.8-23.3
			c-0.2-1.6-0.2-2.9-0.1-3.9c0.1-0.5,0.1-0.8,0.3-1c0.8-0.7,2-0.9,3.4-0.7c1.7,0.3,3.7,1.2,5.7,2.5c0.3,0.2,0.8,0.2,1-0.1
			c0.3-0.3,0.4-0.7,0.2-1c-0.9-2.2-1.4-4.3-1.4-6c0-1.4,0.4-2.5,1.2-3.2c0.2-0.2,0.5-0.1,1-0.1c1,0,2.3,0.3,3.8,0.8
			c6.5,1.9,16.7,6.5,22.3,7.9C389.2,403.9,390.1,404.1,390.9,404.1z M352.1,437L352.1,437l-1.2-1.8l-0.1,0.2l1.3,2l-0.2,0l0.2,0.1
			l0.1,0.2l0.2-0.1l25.4,9.1c2.8,1,5.7,0.8,8.1-0.3c2.3-1.1,4.1-2.9,5.1-5.4c2.7-0.5,4.9-2,6.3-4c1.6-2.2,2.3-5,1.8-8
			c0,0-4.2-27.2-4.2-27.2l-2,2.4l-1.7-3.7l0,0l0.1,0l0-0.1c0.3-0.3,0.6-0.5,1-0.6l-1.1,0.3l0.1,0.3l0,0l0,0.1
			c-0.8,0.2-2.3-0.1-4.1-0.6c-5.6-1.4-14.1-4.7-20-6.2c-3.6-0.9-6.4-1-7.4-0.2c-1.2,1.1-1.8,2.7-1.8,4.8c0,1.3,0.3,2.8,0.8,4.3
			c-1.5-0.7-2.9-1.2-4.1-1.5c-2-0.4-3.7,0-4.9,1c-1,0.8-1.4,3.5-1.1,7.2c0.4,5.2,1.7,12.5,2.4,18.2c0.4,3.2,0.8,5.8,0.3,6.9
			l-0.4,0.8L352.1,437z"/>
	</g>
	<path class="st7" d="M254.1,15.9c133.2,0,241.4,108.1,241.4,241.4S387.3,498.6,254.1,498.6S12.7,390.5,12.7,257.3
		S120.9,15.9,254.1,15.9z M254.1,10.2c-68.6-1-131.1,26-176.7,70.4C31.3,125.4,2.7,188,1.8,257.3c-0.6,69.8,27.4,133.3,72.8,179.4
		c45.7,46.3,109.2,75,179.4,75.3c70.4,0.3,134.3-28.1,180.6-74.1c46.5-46.1,75.3-110,75.5-180.6c0.2-70.8-28.4-134.9-74.6-181.5
		C389.2,29.1,325,0.2,254.1,0V10.2z"/>
	<path class="st8" d="M253,64.9c8-13.5,23.9-13.5,31.8-6.8c8,6.8,8,20.3,0,33.9c-5.6,10.2-19.9,20.3-31.8,27.1
		c-11.9-6.8-26.2-16.9-31.8-27.1c-8-13.5-8-27.1,0-33.9C229.1,51.4,245,51.4,253,64.9z"/>
	<path class="st9" d="M253,64.9c8-13.5,23.9-13.5,31.8-6.8c8,6.8,8,20.3,0,33.9c-5.6,10.2-19.9,20.3-31.8,27.1
		c-11.9-6.8-26.2-16.9-31.8-27.1c-8-13.5-8-27.1,0-33.9C229.1,51.4,245,51.4,253,64.9z M259.1,54c-5.3-5.9-11.7-9.2-18.2-10.3
		c-9.8-1.6-19.8,1.1-26.1,6.9c-5.4,5-8.6,11.8-8.7,20c-0.1,7.7,2.3,16.7,8.1,25.5c2.9,4.7,7.5,9.7,13.2,14.2
		c6.9,5.5,15.2,10.5,22.6,14.2h6.1c7-4.4,14.8-9.9,21.1-15.9c5-4.7,9.1-9.6,11.5-14.4c4.5-8.1,6.4-16.3,5.9-23.3
		c-0.5-6.4-3-11.8-7.5-15.5c-5.1-4.2-12.9-6.2-20.5-4.5C264.1,51.5,261.5,52.5,259.1,54z"/>
	<path class="st10" d="M254.1,111.7c81.3,0,105.3,53.7,105.3,125.1c0,65.3-57.5,141-105.3,141c-49.6,0-109.5-75.1-107.5-141
		C148.3,165.4,167,111.7,254.1,111.7z"/>
	<g>
		<defs>
			<path id="SVGID_00000081636976032336455460000015922232312646090631_" d="M254.1,111.7c81.3,0,105.3,53.7,105.3,125.1
				c0,65.3-57.5,141-105.3,141c-49.6,0-109.5-75.1-107.5-141C148.3,165.4,167,111.7,254.1,111.7z"/>
		</defs>
		<clipPath id="SVGID_00000021808719265773889710000006812838489011297184_">
			<use xlink:href="#SVGID_00000081636976032336455460000015922232312646090631_"  style="overflow:visible;"/>
		</clipPath>
		
			<path style="clip-path:url(#SVGID_00000021808719265773889710000006812838489011297184_);fill-rule:evenodd;clip-rule:evenodd;fill:#863811;" d="
			M246.9,109.1c-56,5.6-74.7,16.1-88,34.3c-12.1,16.6,6,30.3,15.7,29c3.3-0.4,159.3,4.2,177-2.1C354.7,153.3,307.6,103,246.9,109.1z
			"/>
		
			<path style="clip-path:url(#SVGID_00000021808719265773889710000006812838489011297184_);fill-rule:evenodd;clip-rule:evenodd;fill:#361C04;" d="
			M246.9,109.1c-56,5.6-74.7,16.1-88,34.3c-12.1,16.6,6,30.3,15.7,29c3.3-0.4,159.3,4.2,177-2.1C354.7,153.3,307.6,103,246.9,109.1z
			 M246.8,108.3c-26.2,2.6-44.3,6.3-57.4,11.4c-15.2,5.8-23.9,13.4-31.1,23.3c-5.6,7.7-4.9,14.8-1.6,20.2c4.1,6.7,12.4,10.7,18,10
			c2.2-0.3,72.3,1.7,123.9,1.2c25.9-0.3,47.3-1.2,53.2-3.3l0.5-0.5c0.6-3.3-0.5-7.8-3.3-13c-6.1-11.1-19.8-25.2-38.4-35.5
			C292.9,112.3,270.9,105.9,246.8,108.3z"/>
	</g>
	<path class="st13" d="M254.1,111.7c81.3,0,105.3,53.7,105.3,125.1c0,65.3-57.5,141-105.3,141c-49.6,0-109.5-75.1-107.5-141
		C148.3,165.4,167,111.7,254.1,111.7z M254.1,109.2c-43.9-0.5-71,12.7-87.7,34.6c-17.3,22.8-23.3,55.4-24.6,92.8
		c-1.3,31.8,11.2,65.8,30.2,93c22.4,32.1,53.9,54.5,82,54.7c27.5,0.2,58.6-22.5,81.1-55c18.9-27.2,31.8-61.1,31.9-92.7
		c0.2-37.8-6.4-70.8-23.5-94.4c-17.4-24.1-45.7-39-89.5-39.2V109.2z"/>
	<path class="st14" d="M164.7,246.4c4.6-16.4,16.6-23.2,28.9-23.8c5.5-0.3,11,0.6,16,2.5c8.3,3.1,15.2,8.7,18.1,15.7
		c0.1,0.2,0.3,0.3,0.5,0.2c0.2-0.1,0.3-0.3,0.2-0.5c-2.7-7.4-9.7-13.6-18.2-17c-5.2-2.1-11-3.3-16.8-3.1
		c-13.4,0.4-26.4,7.7-31.6,25.2c-0.2,0.8,0.2,1.5,1,1.8C163.7,247.6,164.5,247.1,164.7,246.4z"/>
	<path class="st15" d="M229.5,242.5l-0.1,2.1c-1.5,10.5-15.7,19-33.1,19.4c-16.2,0.3-29.8-6.4-33.2-15.8"/>
	<path class="st16" d="M179.5,242.5c4.2-0.8,8.7-1.4,13.3-1.7c7.6-0.6,15.6-0.5,23.6,0.1c0.1,0.7,0.1,1.3,0.1,2
		c0,10.5-8.3,19.1-18.5,19.1c-10.2,0-18.5-8.5-18.5-19.1C179.5,242.8,179.5,242.6,179.5,242.5z"/>
	<path class="st17" d="M179.5,242.5c4.2-0.8,8.7-1.4,13.3-1.7c7.6-0.6,15.6-0.5,23.6,0.1c0.1,0.7,0.1,1.3,0.1,2
		c0,10.5-8.3,19.1-18.5,19.1c-10.2,0-18.5-8.5-18.5-19.1C179.5,242.8,179.5,242.6,179.5,242.5z"/>
	<path class="st16" d="M185,241.6c2.5-0.4,5.2-0.6,7.8-0.8c5.8-0.4,11.9-0.5,18-0.2c0.1,0.8,0.2,1.5,0.2,2.3c0,7.4-5.8,13.4-13,13.4
		c-7.2,0-13-6-13-13.4C185,242.5,185,242,185,241.6z"/>
	<path class="st17" d="M185,241.6c2.5-0.4,5.2-0.6,7.8-0.8c5.8-0.4,11.9-0.5,18-0.2c0.1,0.8,0.2,1.5,0.2,2.3c0,7.4-5.8,13.4-13,13.4
		c-7.2,0-13-6-13-13.4C185,242.5,185,242,185,241.6z"/>
	<path class="st16" d="M190.8,241c0.7-0.1,1.4-0.1,2.1-0.2c4.1-0.3,8.2-0.4,12.5-0.4c0.3,0.8,0.4,1.6,0.4,2.5c0,4.3-3.4,7.8-7.6,7.8
		c-4.2,0-7.6-3.5-7.6-7.8C190.5,242.2,190.6,241.6,190.8,241z"/>
	<path class="st17" d="M190.8,241c0.7-0.1,1.4-0.1,2.1-0.2c4.1-0.3,8.2-0.4,12.5-0.4c0.3,0.8,0.4,1.6,0.4,2.5c0,4.3-3.4,7.8-7.6,7.8
		c-4.2,0-7.6-3.5-7.6-7.8C190.5,242.2,190.6,241.6,190.8,241z"/>
	<path class="st18" d="M198,240.5c-1.2,0-2.2,1-2.2,2.3c0,1.3,1,2.3,2.2,2.3l0.9-0.2c0.8-0.4,1.4-1.2,1.4-2.1c0-1-0.6-1.8-1.4-2.1
		L198,240.5z"/>
	<path class="st17" d="M198,240.5c-1.2,0-2.2,1-2.2,2.3c0,1.3,1,2.3,2.2,2.3l0.9-0.2c0.8-0.4,1.4-1.2,1.4-2.1c0-1-0.6-1.8-1.4-2.1
		L198,240.5z"/>
	<path class="st18" d="M198.9,240.7c0.8,0.4,1.4,1.2,1.4,2.1c0,1-0.6,1.8-1.4,2.1l-0.9,0.2c-1.2,0-2.2-1-2.2-2.3
		c0-1.3,1-2.3,2.2-2.3L198.9,240.7z"/>
	<path class="st19" d="M198.9,240.7c0.8,0.4,1.4,1.2,1.4,2.1c0,1-0.6,1.8-1.4,2.1l-0.9,0.2c-1.2,0-2.2-1-2.2-2.3
		c0-1.3,1-2.3,2.2-2.3L198.9,240.7z"/>
	<path class="st13" d="M159.3,252.1c8.8-6.4,20.9-9.8,34-11.2c11.7-1.2,24.3-0.9,36.3,1.6l0.7-4c-12.2-3.9-25.1-5.9-37.3-5.5
		c-14.3,0.5-27.5,4.4-37.2,10.9L159.3,252.1z"/>
	<path class="st14" d="M344,245.6c-5.2-17.6-18.2-24.9-31.6-25.2c-5.7-0.2-11.5,1-16.8,3.1c-8.5,3.5-15.5,9.6-18.2,17
		c-0.1,0.2,0,0.5,0.2,0.5c0.2,0.1,0.5,0,0.5-0.2c2.9-7.1,9.8-12.7,18.1-15.7c5-1.9,10.6-2.8,16-2.5c12.4,0.6,24.4,7.5,28.9,23.8
		c0.2,0.8,1,1.2,1.8,1C343.8,247.2,344.2,246.4,344,245.6z"/>
	<path class="st13" d="M350.2,253.6c-10.8,5.2-24.5,6.9-38.7,4.9c-12.1-1.7-24.4-6.2-35.6-12.4l1.4-4.1c11.3,4.7,23.6,7.3,35.4,8
		c13.2,0.9,25.7-0.6,35.6-5.8L350.2,253.6z"/>
	<path class="st16" d="M249,316.1c-3.8-9.6-8.8-24-8.8-31.8c0-7.1,5.7-12.8,12.8-12.8c7.1,0,12.8,5.7,12.8,12.8
		c0,7.8-5.1,22.2-8.8,31.8c3.8,9.6,8.8,24,8.8,31.8c0,7.1-5.7,12.8-12.8,12.8c-7.1,0-12.8-5.7-12.8-12.8
		C240.2,340,245.3,325.7,249,316.1z"/>
	<path class="st20" d="M249,316.1c-3.8-9.6-8.8-24-8.8-31.8c0-7.1,5.7-12.8,12.8-12.8c7.1,0,12.8,5.7,12.8,12.8
		c0,7.8-5.1,22.2-8.8,31.8c3.8,9.6,8.8,24,8.8,31.8c0,7.1-5.7,12.8-12.8,12.8c-7.1,0-12.8-5.7-12.8-12.8
		C240.2,340,245.3,325.7,249,316.1z M246.8,317l1-1.3c-2.2,5.4-4.8,12.4-6.7,18.8c-1.5,5.1-2.5,9.9-2.6,13.4c0,4,1.6,7.6,4.2,10.3
		c2.6,2.6,6.3,4.2,10.3,4.2c4-0.1,7.6-1.7,10.1-4.3c2.6-2.6,4.1-6.2,4.1-10.1c0-3.5-1.1-8.3-2.5-13.3c-1.8-6.3-4.2-13-6.2-18.4
		c2.1-5.4,4.7-12.1,6.5-18.4c1.5-5.1,2.5-9.9,2.5-13.4c0-4-1.6-7.6-4.2-10.3c-2.6-2.7-6.3-4.3-10.3-4.4c-4.1,0-7.7,1.6-10.4,4.2
		c-2.7,2.7-4.4,6.3-4.4,10.4c0,3.6,0.9,8.4,2.3,13.6C242.2,304.4,244.7,311.5,246.8,317z"/>
	<path class="st9" d="M144.6,218.5c0,0,3.3-6.8,9.7-13.4c3.4-3.5,7.8-6.9,13-9.1c6.8-2.7,13.8-2.7,21.1-1.2
		c10,2.1,20.1,7.3,30.3,13.4l6.6-13.7c-12.4-4.7-24.5-8.4-35.8-8.7c-8.8-0.3-17,1.2-24.4,5.7c-5.3,3.2-9.4,7.6-12.6,12
		C146.9,211.1,144.6,218.5,144.6,218.5z"/>
	<path class="st9" d="M356.7,218.5c0,0-2.4-7.4-7.8-14.9c-3.2-4.4-7.3-8.8-12.6-12c-7.4-4.6-15.6-6-24.4-5.7
		c-11.3,0.3-23.4,4-35.8,8.7l6.6,13.7c10.3-6.1,20.3-11.4,30.3-13.4c7.3-1.5,14.3-1.5,21.1,1.2c5.2,2.1,9.6,5.5,13,9.1
		C353.4,211.6,356.7,218.5,356.7,218.5z"/>
	<path class="st9" d="M320.1,130.5c-3.6,4.4-6.1,8-6.9,13.4c-0.6,3.9-0.2,8.6,1.4,15.1c1.4,5.9,5.7,11.5,11.6,14.9
		c5.3,3.1,11.9,4.5,19.5,2.8c1.7-0.5,2.7-2.4,2.2-4.1c-0.5-1.7-2.4-2.7-4.1-2.2c-5.7,2.2-11.2,2-15.7,0c-5.4-2.4-9.3-7.1-10.9-12.1
		c-1.9-6.1-2.5-10.6-2.2-14.2c0.5-5.1,2.7-8.7,5.9-13c0.2-0.2,0.1-0.5-0.1-0.7C320.6,130.3,320.3,130.3,320.1,130.5z"/>
	<path class="st9" d="M305.1,118.8c-5,5.6-9.8,11.2-12.8,18c-2.6,6.2-3.7,13.3-2.1,22.2c1,6.1,5.4,11.8,11.6,15.3
		c5.4,3,12.2,4.3,19.6,2.5c1.7-0.5,2.7-2.4,2.2-4.1c-0.5-1.7-2.4-2.7-4.1-2.2c-5.7,2.2-11.2,1.9-15.7,0c-5.4-2.4-9.4-6.9-10.7-12
		c-1.9-8.3-1.3-15,1-20.9c2.6-6.8,7.1-12.4,11.8-18.1c0.2-0.2,0.2-0.5,0-0.7C305.6,118.5,305.3,118.6,305.1,118.8z"/>
	<path class="st9" d="M290.9,112.2c-7.9,4.6-15,11.4-19.6,19.5c-4.8,8.3-7.1,17.8-5.3,27.4c1,6.2,5.5,11.9,11.7,15.4
		c5.4,3,12.3,4.2,19.7,2.4c1.7-0.5,2.7-2.4,2.2-4.1c-0.5-1.7-2.4-2.7-4.1-2.2c-5.7,2.1-11.2,1.8-15.7-0.2
		c-5.4-2.4-9.3-6.9-10.6-11.9c-2.1-8.9-0.3-17.8,3.9-25.8c4.2-8,10.9-14.9,18.4-19.6c0.2-0.1,0.3-0.5,0.2-0.7
		C291.5,112.1,291.1,112,290.9,112.2z"/>
	<path class="st9" d="M270.6,112.1c-11.1,3-19,9.5-23.8,17.4c-5.4,8.8-7,19.5-5.1,29.5c1.1,6.2,5.5,11.9,11.7,15.4
		c5.4,3,12.3,4.2,19.7,2.3c1.7-0.5,2.7-2.4,2.2-4.1c-0.5-1.7-2.4-2.7-4.1-2.2c-5.7,2.1-11.2,1.8-15.7-0.2
		c-5.3-2.4-9.3-6.8-10.6-11.8c-2.2-9.2-1.1-19.3,3.6-27.8c4.3-7.8,11.7-14.2,22.3-17.5c0.3-0.1,0.4-0.4,0.3-0.6
		C271.1,112.2,270.8,112,270.6,112.1z"/>
	<path class="st9" d="M247.8,112.1c-9.8,3.1-18,9.7-23.5,17.9c-5.9,8.8-8.6,19.3-6.8,29.1c1.1,6.2,5.5,11.9,11.7,15.4
		c5.4,3,12.3,4.2,19.7,2.3c1.7-0.5,2.7-2.4,2.2-4.1c-0.5-1.7-2.4-2.7-4.1-2.2c-5.7,2.1-11.2,1.8-15.7-0.2
		c-5.3-2.4-9.3-6.8-10.6-11.8c-2.1-9,0.1-18.9,5.3-27.3c5-8.1,12.8-14.7,22.1-18c0.3-0.1,0.4-0.4,0.3-0.6S248,112,247.8,112.1z"/>
	<path class="st21" d="M194.8,125.8c-19.5,7.6-39.5,17-39.5,32.6c0,10.6,11.1,19.5,25.2,15.1"/>
	<path class="st9" d="M194.4,124.8c-10.7,4.1-21.5,8.7-29.3,14.6c-7,5.2-11.5,11.4-11.7,19c-0.3,6.6,3.4,12.6,9.2,16.2
		c4.9,3,11.4,4.1,18.9,2.1c1.7-0.5,2.7-2.4,2.2-4.1c-0.5-1.7-2.4-2.7-4.1-2.2c-5.5,2-10.6,1.7-14.5-0.3c-4.7-2.3-7.7-6.7-7.9-11.7
		c-0.1-6.6,3.7-12.1,9.6-16.8c7.4-5.9,18-10.6,28.4-14.7c0.6-0.2,0.8-0.9,0.6-1.4C195.6,124.9,195,124.6,194.4,124.8z"/>
	<path class="st21" d="M218.4,117.5c-38.3,5-46.6,22.9-42.8,41.2c2.2,10.4,14.7,19.2,28.8,14.9"/>
	<path class="st9" d="M218.2,116.4c-19.5,2.4-31.4,8.3-38,15.7c-7,7.7-8.4,17.3-6.6,27.1c1.1,6.3,5.6,12.1,11.9,15.5
		c5.5,3,12.4,4.1,19.8,2.1c1.7-0.5,2.7-2.4,2.2-4.1c-0.5-1.7-2.4-2.7-4.1-2.2c-5.7,2-11.1,1.6-15.5-0.4c-5.2-2.4-9.1-6.8-10.3-11.7
		c-2-8.6-1.2-17.3,4.8-24.4c6.2-7.3,17.6-12.8,36.2-15.4c0.6-0.1,1-0.6,1-1.2C219.4,116.7,218.8,116.3,218.2,116.4z"/>
	<path class="st9" d="M233.1,112.1c-14.4,2.5-24.2,7.8-30.7,14.4c-9.2,9.4-11.4,21.4-9.3,32.6c1.1,6.2,5.5,12,11.7,15.4
		c5.5,3,12.3,4.2,19.7,2.3c1.7-0.5,2.7-2.4,2.2-4.1c-0.5-1.7-2.4-2.7-4.1-2.2c-5.7,2.1-11.2,1.7-15.6-0.3
		c-5.3-2.4-9.3-6.8-10.5-11.8c-2.4-10.2-0.7-21.5,7.4-30.4c6-6.6,15.5-11.9,29.3-14.8c0.3-0.1,0.5-0.3,0.4-0.6
		C233.7,112.2,233.4,112,233.1,112.1z"/>
</g>
</svg>
